<?xml version="1.0" encoding="UTF-8" standalone="no"?>
<svg width="30px" height="30px" viewBox="0 0 30 30" version="1.1" xmlns="http://www.w3.org/2000/svg" xmlns:xlink="http://www.w3.org/1999/xlink">
    <!-- Generator: Sketch 3.8.3 (29802) - http://www.bohemiancoding.com/sketch -->
    <title>alert icon svg</title>
    <desc>Created with Sketch.</desc>
    <defs></defs>
    <g id="Page-1" stroke="none" stroke-width="1" fill="none" fill-rule="evenodd">
        <g id="alert-icon-svg" fill="#FFFFFF">
            <path d="M16.7400112,18.6297405 C16.7400112,19.5479042 15.7284422,20.2934132 14.8649991,20.2934132 C14.0015561,20.2934132 12.9899871,19.5479042 12.9899871,18.6297405 L12.9899871,10.3133733 C12.9899871,9.39421158 14.0015561,8.6497006 14.8649991,8.6497006 C15.7284422,8.6497006 16.7400112,9.39421158 16.7400112,10.3133733 L16.7400112,18.6297405 Z M15,25.2824351 C14.136557,25.2824351 13.4371775,24.5389222 13.4371775,23.6197605 C13.4371775,22.7005988 14.136557,21.9560878 15,21.9560878 C15.863443,21.9560878 16.5628225,22.7005988 16.5628225,23.6197605 C16.5628225,24.5389222 15.863443,25.2824351 15,25.2824351 L15,25.2824351 Z M29.712282,26.1237525 L17.2125142,1.39121756 C16.7803239,0.536926148 15.9290685,0 15,0 C14.071869,0 13.2206136,0.536926148 12.7874858,1.39121756 L0.287717998,26.1237525 C-0.120097121,26.9321357 -0.0929094466,27.9311377 0.359905962,28.7125749 C0.812721371,29.494012 1.62460159,30 2.50023221,30 L27.5007053,30 C28.3753984,30 29.1872786,29.494012 29.640094,28.7125749 C30.0929094,27.9311377 30.1200971,26.9321357 29.712282,26.1237525 L29.712282,26.1237525 Z" id="Fill-1-Copy-8"></path>
        </g>
    </g>
</svg>