<?xml version="1.0" encoding="UTF-8" standalone="no"?>
<svg width="30px" height="30px" viewBox="0 0 30 30" version="1.1" xmlns="http://www.w3.org/2000/svg" xmlns:xlink="http://www.w3.org/1999/xlink">
    <!-- Generator: Sketch 3.8.3 (29802) - http://www.bohemiancoding.com/sketch -->
    <title>Fill 1 Copy</title>
    <desc>Created with Sketch.</desc>
    <defs></defs>
    <g id="Page-1" stroke="none" stroke-width="1" fill="none" fill-rule="evenodd">
        <g id="restart-icon-svg" fill="#FFFFFF">
            <path d="M25.8352133,17.999 C24.5149668,22.615 20.237045,26 15.1520253,26 C9.01545507,26 4.04054009,21.076 4.04054009,15.001 C4.04054009,8.925 9.01545507,4 15.1520253,4 C18.6026466,4 21.6855786,5.557 23.723021,8 L19.1925654,8 C18.0763662,8 17.1722954,8.895 17.1722954,10 C17.1722954,11.105 18.0763662,12 19.1925654,12 L27.2736456,12 C28.3898448,12 29.2939156,11.105 29.2939156,10 L29.2939156,2.001 C29.2939156,0.895 28.3898448,0 27.2736456,0 C26.1574464,0 25.2533755,0.895 25.2533755,2.001 L25.2533755,3.836 C22.5734873,1.455 19.0380147,0 15.1520253,0 C6.7840668,0 0,6.716 0,15.001 C0,23.284 6.7840668,30 15.1520253,30 C22.4825752,30 28.5969225,24.846 30,17.999 L25.8352133,17.999 Z" id="Fill-1-Copy"></path>
        </g>
    </g>
</svg>